<svg xmlns="http://www.w3.org/2000/svg"  viewBox="0 0 24 24" width="24px" height="24px"><path d="M13,3c0-0.552-0.448-1-1-1s-1,0.448-1,1c0,0.3,0,3.7,0,4c0,0.552,0.448,1,1,1s1-0.448,1-1C13,6.7,13,3.3,13,3z"/><path d="M13,17c0-0.552-0.448-1-1-1s-1,0.448-1,1c0,0.3,0,3.7,0,4c0,0.552,0.448,1,1,1s1-0.448,1-1	C13,20.7,13,17.3,13,17z" opacity=".35"/><path d="M21,13c0.552,0,1-0.448,1-1s-0.448-1-1-1c-0.3,0-3.7,0-4,0c-0.552,0-1,0.448-1,1s0.448,1,1,1	C17.3,13,20.7,13,21,13z" opacity=".35"/><path d="M7,13c0.552,0,1-0.448,1-1s-0.448-1-1-1c-0.3,0-3.7,0-4,0c-0.552,0-1,0.448-1,1s0.448,1,1,1C3.3,13,6.7,13,7,13z"/><path d="M19.071,6.343c0.39-0.39,0.391-1.024,0-1.414s-1.024-0.39-1.414,0c-0.212,0.212-2.616,2.616-2.828,2.828	c-0.39,0.39-0.391,1.024,0,1.414c0.391,0.391,1.024,0.39,1.414,0C16.455,8.959,18.859,6.556,19.071,6.343z"/><path d="M9.172,16.243c0.39-0.39,0.391-1.024,0-1.414c-0.391-0.391-1.024-0.39-1.414,0c-0.212,0.212-2.616,2.616-2.828,2.828	c-0.39,0.39-0.391,1.024,0,1.414s1.024,0.39,1.414,0C6.556,18.859,8.959,16.455,9.172,16.243z"/><path d="M17.657,19.071c0.39,0.39,1.024,0.391,1.414,0s0.39-1.024,0-1.414	c-0.212-0.212-2.616-2.616-2.828-2.828c-0.39-0.39-1.024-0.391-1.414,0c-0.391,0.391-0.39,1.024,0,1.414	C15.041,16.455,17.444,18.859,17.657,19.071z" opacity=".35"/><path d="M7.757,9.172c0.39,0.39,1.024,0.391,1.414,0c0.391-0.391,0.39-1.024,0-1.414C8.959,7.545,6.556,5.141,6.343,4.929	c-0.39-0.39-1.024-0.391-1.414,0s-0.39,1.024,0,1.414C5.141,6.556,7.545,8.959,7.757,9.172z"/></svg>