<svg width="20" height="20" viewBox="0 0 20 20" fill="none" xmlns="http://www.w3.org/2000/svg">
<path d="M16.4813 1.66675H3.51836C2.49984 1.66675 1.6665 2.50008 1.6665 3.5186V16.4816C1.6665 17.5001 2.49984 18.3334 3.51836 18.3334H16.4813C17.4998 18.3334 18.3332 17.5001 18.3332 16.4816V3.5186C18.3332 2.50008 17.4998 1.66675 16.4813 1.66675ZM10.0091 15.5556C9.36095 15.5556 8.84243 15.0371 8.84243 14.389C8.84243 13.7316 9.36095 13.2316 10.0091 13.2316C10.6665 13.2316 11.1665 13.7316 11.1665 14.389C11.1572 15.0279 10.6665 15.5556 10.0091 15.5556ZM12.7961 8.70379C12.0924 9.73156 11.4258 10.0556 11.0647 10.713C10.9165 10.9816 10.8609 11.1575 10.8609 12.0186H9.17576C9.17576 11.5649 9.10169 10.8242 9.4628 10.1853C9.9165 9.37971 10.7776 8.89823 11.2776 8.18527C11.8054 7.43527 11.5091 6.02786 10.0091 6.02786C9.02762 6.02786 8.54613 6.7686 8.34243 7.39823L6.81465 6.75008C7.23132 5.50934 8.35169 4.44453 9.99058 4.44453C11.3609 4.44453 12.2961 5.0649 12.7776 5.85193C13.185 6.5186 13.4258 7.7686 12.7961 8.70379Z" fill="#6A6A6F"/>
</svg>
