<svg width="20" height="20" viewBox="0 0 20 20" fill="none" xmlns="http://www.w3.org/2000/svg">
<path d="M9.99984 1.66675C5.39984 1.66675 1.6665 5.40008 1.6665 10.0001C1.6665 14.6001 5.39984 18.3334 9.99984 18.3334C14.5998 18.3334 18.3332 14.6001 18.3332 10.0001C18.3332 5.40008 14.5998 1.66675 9.99984 1.66675ZM10.7332 14.8001V15.8334H9.27484V14.7584C8.65817 14.6084 7.28317 14.1167 6.75817 12.2917L8.13317 11.7334C8.18317 11.9167 8.6165 13.4751 10.1332 13.4751C10.9082 13.4751 11.7832 13.0751 11.7832 12.1334C11.7832 11.3334 11.1998 10.9167 9.88317 10.4417C8.9665 10.1167 7.0915 9.58342 7.0915 7.68342C7.0915 7.60008 7.09984 5.68341 9.27484 5.21675V4.16675H10.7332V5.20008C12.2665 5.46675 12.8248 6.69175 12.9498 7.05842L11.6332 7.61675C11.5415 7.32508 11.1415 6.50008 10.0498 6.50008C9.4665 6.50008 8.5415 6.80841 8.5415 7.65841C8.5415 8.45008 9.25817 8.75008 10.7415 9.24175C12.7415 9.93342 13.2498 10.9501 13.2498 12.1167C13.2498 14.3084 11.1665 14.7251 10.7332 14.8001Z" fill="#6A6A6F"/>
</svg>
