<svg width="20" height="20" viewBox="0 0 20 20" fill="none" xmlns="http://www.w3.org/2000/svg">
<path d="M13.2531 10.8753L11.4854 12.6431L16.4822 17.6399L18.2499 15.8722L13.2531 10.8753Z" fill="#6A6A6F"/>
<path d="M14.5833 8.33325C16.1917 8.33325 17.5 7.02492 17.5 5.41659C17.5 4.93325 17.3667 4.48325 17.1583 4.08325L14.9083 6.33325L13.6667 5.09159L15.9167 2.84159C15.5167 2.63325 15.0667 2.49992 14.5833 2.49992C12.975 2.49992 11.6667 3.80825 11.6667 5.41659C11.6667 5.75825 11.7333 6.08325 11.8417 6.38325L10.3 7.92492L8.81667 6.44159L9.40833 5.84992L8.23333 4.67492L10 2.90825C9.025 1.93325 7.44167 1.93325 6.46667 2.90825L3.51667 5.85825L4.69167 7.03325H2.34167L1.75 7.62492L4.7 10.5749L5.29167 9.98325V7.62492L6.46667 8.79992L7.05833 8.20825L8.54167 9.69159L2.36667 15.8666L4.13333 17.6333L13.6167 8.15825C13.9167 8.26658 14.2417 8.33325 14.5833 8.33325Z" fill="#6A6A6F"/>
</svg>
